# Tiled2Unity generated file. Do not modify by hand.
# Wavefront file for 'dungeon-lvl-2_mesh_0017.obj'

# Vertices (Count = 8)
v -0.025919 -0.02193147 0
v -0.02691589 -0.02193147 0
v -0.02691589 -0.02093458 0
v -0.025919 -0.02093458 0
v -0.02890966 -0.02193147 0
v -0.02990654 -0.02193147 0
v -0.02990654 -0.02093458 0
v -0.02890966 -0.02093458 0

# Texture cooridinates (Count = 4)
vt 1 0
vt 1 1
vt 0 1
vt 0 0

# Normal
vn 0 0 -1

# Mesh description
g dungeon-lvl-2_mesh_0017

# Faces
f 1/1/1 2/2/1 3/3/1 4/4/1
f 5/1/1 6/2/1 7/3/1 8/4/1

