# Tiled2Unity generated file. Do not modify by hand.
# Wavefront file for 'dungeon-lvl-2_mesh_0015.obj'

# Vertices (Count = 20)
v -0.004984424 -0.01395639 0
v -0.005981308 -0.01395639 0
v -0.005981308 -0.0129595 0
v -0.004984424 -0.0129595 0
v -0.01794393 -0.025919 0
v -0.01894081 -0.025919 0
v -0.01894081 -0.02492212 0
v -0.01794393 -0.02492212 0
v -0.01894081 -0.025919 0
v -0.0199377 -0.025919 0
v -0.0199377 -0.02492212 0
v -0.01894081 -0.02492212 0
v -0.0199377 -0.025919 0
v -0.02093458 -0.025919 0
v -0.02093458 -0.02492212 0
v -0.0199377 -0.02492212 0
v -0.02093458 -0.025919 0
v -0.02193147 -0.025919 0
v -0.02193147 -0.02492212 0
v -0.02093458 -0.02492212 0

# Texture cooridinates (Count = 4)
vt 0 0
vt 1 0
vt 1 1
vt 0 1

# Normal
vn 0 0 -1

# Mesh description
g dungeon-lvl-2_mesh_0015

# Faces
f 1/1/1 2/2/1 3/3/1 4/4/1
f 5/1/1 6/2/1 7/3/1 8/4/1
f 9/1/1 10/2/1 11/3/1 12/4/1
f 13/1/1 14/2/1 15/3/1 16/4/1
f 17/1/1 18/2/1 19/3/1 20/4/1

