# Tiled2Unity generated file. Do not modify by hand.
# Wavefront file for 'dungeon-lvl-2_mesh_0010.obj'

# Vertices (Count = 8)
v -0.02292835 -0.009968848 0
v -0.02392523 -0.009968848 0
v -0.02392523 -0.008971963 0
v -0.02292835 -0.008971963 0
v -0.005981308 -0.01495327 0
v -0.006978193 -0.01495327 0
v -0.006978193 -0.01395639 0
v -0.005981308 -0.01395639 0

# Texture cooridinates (Count = 4)
vt 0 0
vt 1 0
vt 1 1
vt 0 1

# Normal
vn 0 0 -1

# Mesh description
g dungeon-lvl-2_mesh_0010

# Faces
f 1/1/1 2/2/1 3/3/1 4/4/1
f 5/1/1 6/2/1 7/3/1 8/4/1

