# Tiled2Unity generated file. Do not modify by hand.
# Wavefront file for 'dungeon-lvl-2_mesh_0034.obj'

# Vertices (Count = 8)
v -0.0009968848 -0.02791277 0
v -0.00199377 -0.02791277 0
v -0.00199377 -0.02691589 0
v -0.0009968848 -0.02691589 0
v -0.00199377 -0.02791277 0
v -0.002990654 -0.02791277 0
v -0.002990654 -0.02691589 0
v -0.00199377 -0.02691589 0

# Texture cooridinates (Count = 4)
vt 1 0
vt 1 1
vt 0 1
vt 0 0

# Normal
vn 0 0 -1

# Mesh description
g dungeon-lvl-2_mesh_0034

# Faces
f 1/1/1 2/2/1 3/3/1 4/4/1
f 5/3/1 6/4/1 7/1/1 8/2/1

