# Tiled2Unity generated file. Do not modify by hand.
# Wavefront file for 'dungeon-lvl-1_mesh_0009.obj'

# Vertices (Count = 12)
v -0.003987539 -0.002990654 0
v -0.004984424 -0.002990654 0
v -0.004984424 -0.00199377 0
v -0.003987539 -0.00199377 0
v -0.004984424 -0.002990654 0
v -0.005981308 -0.002990654 0
v -0.005981308 -0.00199377 0
v -0.004984424 -0.00199377 0
v -0.01395639 -0.007975078 0
v -0.01495327 -0.007975078 0
v -0.01495327 -0.006978193 0
v -0.01395639 -0.006978193 0

# Texture cooridinates (Count = 4)
vt 0 0
vt 1 0
vt 1 1
vt 0 1

# Normal
vn 0 0 -1

# Mesh description
g dungeon-lvl-1_mesh_0009

# Faces
f 1/1/1 2/2/1 3/3/1 4/4/1
f 5/1/1 6/2/1 7/3/1 8/4/1
f 9/1/1 10/2/1 11/3/1 12/4/1

