# Tiled2Unity generated file. Do not modify by hand.
# Wavefront file for 'dungeon-lvl-2_mesh_0011.obj'

# Vertices (Count = 12)
v -0.02093458 -0.01096573 0
v -0.02193147 -0.01096573 0
v -0.02193147 -0.009968848 0
v -0.02093458 -0.009968848 0
v -0.003987539 -0.01595016 0
v -0.004984424 -0.01595016 0
v -0.004984424 -0.01495327 0
v -0.003987539 -0.01495327 0
v -0.01694704 -0.02890966 0
v -0.01794393 -0.02890966 0
v -0.01794393 -0.02791277 0
v -0.01694704 -0.02791277 0

# Texture cooridinates (Count = 4)
vt 0 0
vt 1 0
vt 1 1
vt 0 1

# Normal
vn 0 0 -1

# Mesh description
g dungeon-lvl-2_mesh_0011

# Faces
f 1/1/1 2/2/1 3/3/1 4/4/1
f 5/1/1 6/2/1 7/3/1 8/4/1
f 9/1/1 10/2/1 11/3/1 12/4/1

