# Tiled2Unity generated file. Do not modify by hand.
# Wavefront file for 'dungeon-lvl-2_mesh_0025.obj'

# Vertices (Count = 40)
v -0.01894081 -0.00199377 0
v -0.0199377 -0.00199377 0
v -0.0199377 -0.0009968848 0
v -0.01894081 -0.0009968848 0
v -0.02890966 -0.00199377 0
v -0.02990654 -0.00199377 0
v -0.02990654 -0.0009968848 0
v -0.02890966 -0.0009968848 0
v -0.0009968848 -0.0129595 0
v -0.00199377 -0.0129595 0
v -0.00199377 -0.01196262 0
v -0.0009968848 -0.01196262 0
v -0.02990654 -0.01595016 0
v -0.03090343 -0.01595016 0
v -0.03090343 -0.01495327 0
v -0.02990654 -0.01495327 0
v -0.0009968848 -0.01794393 0
v -0.00199377 -0.01794393 0
v -0.00199377 -0.01694704 0
v -0.0009968848 -0.01694704 0
v -0.02791277 -0.02093458 0
v -0.02890966 -0.02093458 0
v -0.02890966 -0.0199377 0
v -0.02791277 -0.0199377 0
v -0.02292835 -0.02193147 0
v -0.02392523 -0.02193147 0
v -0.02392523 -0.02093458 0
v -0.02292835 -0.02093458 0
v -0.02093458 -0.02392523 0
v -0.02193147 -0.02392523 0
v -0.02193147 -0.02292835 0
v -0.02093458 -0.02292835 0
v -0.0009968848 -0.03090343 0
v -0.00199377 -0.03090343 0
v -0.00199377 -0.02990654 0
v -0.0009968848 -0.02990654 0
v -0.00199377 -0.03090343 0
v -0.002990654 -0.03090343 0
v -0.002990654 -0.02990654 0
v -0.00199377 -0.02990654 0

# Texture cooridinates (Count = 4)
vt 1 0
vt 1 1
vt 0 1
vt 0 0

# Normal
vn 0 0 -1

# Mesh description
g dungeon-lvl-2_mesh_0025

# Faces
f 1/1/1 2/2/1 3/3/1 4/4/1
f 5/1/1 6/2/1 7/3/1 8/4/1
f 9/4/1 10/1/1 11/2/1 12/3/1
f 13/2/1 14/3/1 15/4/1 16/1/1
f 17/4/1 18/1/1 19/2/1 20/3/1
f 21/3/1 22/4/1 23/1/1 24/2/1
f 25/3/1 26/4/1 27/1/1 28/2/1
f 29/2/1 30/3/1 31/4/1 32/1/1
f 33/3/1 34/4/1 35/1/1 36/2/1
f 37/3/1 38/4/1 39/1/1 40/2/1

