# Tiled2Unity generated file. Do not modify by hand.
# Wavefront file for 'dungeon-lvl-2_mesh_0031.obj'

# Vertices (Count = 152)
v -0.009968848 -0.005981308 0
v -0.01096573 -0.005981308 0
v -0.01096573 -0.004984424 0
v -0.009968848 -0.004984424 0
v -0.009968848 -0.006978193 0
v -0.01096573 -0.006978193 0
v -0.01096573 -0.005981308 0
v -0.009968848 -0.005981308 0
v -0.009968848 -0.007975078 0
v -0.01096573 -0.007975078 0
v -0.01096573 -0.006978193 0
v -0.009968848 -0.006978193 0
v -0.009968848 -0.008971963 0
v -0.01096573 -0.008971963 0
v -0.01096573 -0.007975078 0
v -0.009968848 -0.007975078 0
v -0.009968848 -0.009968848 0
v -0.01096573 -0.009968848 0
v -0.01096573 -0.008971963 0
v -0.009968848 -0.008971963 0
v -0.009968848 -0.01096573 0
v -0.01096573 -0.01096573 0
v -0.01096573 -0.009968848 0
v -0.009968848 -0.009968848 0
v -0.009968848 -0.01196262 0
v -0.01096573 -0.01196262 0
v -0.01096573 -0.01096573 0
v -0.009968848 -0.01096573 0
v -0.009968848 -0.0129595 0
v -0.01096573 -0.0129595 0
v -0.01096573 -0.01196262 0
v -0.009968848 -0.01196262 0
v -0.009968848 -0.01395639 0
v -0.01096573 -0.01395639 0
v -0.01096573 -0.0129595 0
v -0.009968848 -0.0129595 0
v -0.009968848 -0.01495327 0
v -0.01096573 -0.01495327 0
v -0.01096573 -0.01395639 0
v -0.009968848 -0.01395639 0
v -0.009968848 -0.01595016 0
v -0.01096573 -0.01595016 0
v -0.01096573 -0.01495327 0
v -0.009968848 -0.01495327 0
v -0.009968848 -0.01694704 0
v -0.01096573 -0.01694704 0
v -0.01096573 -0.01595016 0
v -0.009968848 -0.01595016 0
v -0.009968848 -0.01794393 0
v -0.01096573 -0.01794393 0
v -0.01096573 -0.01694704 0
v -0.009968848 -0.01694704 0
v -0.009968848 -0.01894081 0
v -0.01096573 -0.01894081 0
v -0.01096573 -0.01794393 0
v -0.009968848 -0.01794393 0
v -0.009968848 -0.0199377 0
v -0.01096573 -0.0199377 0
v -0.01096573 -0.01894081 0
v -0.009968848 -0.01894081 0
v -0.009968848 -0.02093458 0
v -0.01096573 -0.02093458 0
v -0.01096573 -0.0199377 0
v -0.009968848 -0.0199377 0
v -0.009968848 -0.02193147 0
v -0.01096573 -0.02193147 0
v -0.01096573 -0.02093458 0
v -0.009968848 -0.02093458 0
v -0.009968848 -0.02292835 0
v -0.01096573 -0.02292835 0
v -0.01096573 -0.02193147 0
v -0.009968848 -0.02193147 0
v -0.009968848 -0.02392523 0
v -0.01096573 -0.02392523 0
v -0.01096573 -0.02292835 0
v -0.009968848 -0.02292835 0
v -0.009968848 -0.02492212 0
v -0.01096573 -0.02492212 0
v -0.01096573 -0.02392523 0
v -0.009968848 -0.02392523 0
v -0.009968848 -0.025919 0
v -0.01096573 -0.025919 0
v -0.01096573 -0.02492212 0
v -0.009968848 -0.02492212 0
v -0.009968848 -0.02691589 0
v -0.01096573 -0.02691589 0
v -0.01096573 -0.025919 0
v -0.009968848 -0.025919 0
v -0.01096573 -0.02791277 0
v -0.01196262 -0.02791277 0
v -0.01196262 -0.02691589 0
v -0.01096573 -0.02691589 0
v -0.01196262 -0.02791277 0
v -0.0129595 -0.02791277 0
v -0.0129595 -0.02691589 0
v -0.01196262 -0.02691589 0
v -0.0129595 -0.02791277 0
v -0.01395639 -0.02791277 0
v -0.01395639 -0.02691589 0
v -0.0129595 -0.02691589 0
v -0.01395639 -0.02791277 0
v -0.01495327 -0.02791277 0
v -0.01495327 -0.02691589 0
v -0.01395639 -0.02691589 0
v -0.01495327 -0.02791277 0
v -0.01595016 -0.02791277 0
v -0.01595016 -0.02691589 0
v -0.01495327 -0.02691589 0
v -0.01595016 -0.02791277 0
v -0.01694704 -0.02791277 0
v -0.01694704 -0.02691589 0
v -0.01595016 -0.02691589 0
v -0.01694704 -0.02791277 0
v -0.01794393 -0.02791277 0
v -0.01794393 -0.02691589 0
v -0.01694704 -0.02691589 0
v -0.01794393 -0.02791277 0
v -0.01894081 -0.02791277 0
v -0.01894081 -0.02691589 0
v -0.01794393 -0.02691589 0
v -0.01894081 -0.02791277 0
v -0.0199377 -0.02791277 0
v -0.0199377 -0.02691589 0
v -0.01894081 -0.02691589 0
v -0.0199377 -0.02791277 0
v -0.02093458 -0.02791277 0
v -0.02093458 -0.02691589 0
v -0.0199377 -0.02691589 0
v -0.02093458 -0.02791277 0
v -0.02193147 -0.02791277 0
v -0.02193147 -0.02691589 0
v -0.02093458 -0.02691589 0
v -0.02193147 -0.02791277 0
v -0.02292835 -0.02791277 0
v -0.02292835 -0.02691589 0
v -0.02193147 -0.02691589 0
v -0.02292835 -0.02791277 0
v -0.02392523 -0.02791277 0
v -0.02392523 -0.02691589 0
v -0.02292835 -0.02691589 0
v -0.02392523 -0.02791277 0
v -0.02492212 -0.02791277 0
v -0.02492212 -0.02691589 0
v -0.02392523 -0.02691589 0
v -0.02492212 -0.02990654 0
v -0.025919 -0.02990654 0
v -0.025919 -0.02890966 0
v -0.02492212 -0.02890966 0
v -0.02492212 -0.03090343 0
v -0.025919 -0.03090343 0
v -0.025919 -0.02990654 0
v -0.02492212 -0.02990654 0

# Texture cooridinates (Count = 4)
vt 0 0
vt 1 0
vt 1 1
vt 0 1

# Normal
vn 0 0 -1

# Mesh description
g dungeon-lvl-2_mesh_0031

# Faces
f 1/1/1 2/2/1 3/3/1 4/4/1
f 5/1/1 6/2/1 7/3/1 8/4/1
f 9/1/1 10/2/1 11/3/1 12/4/1
f 13/1/1 14/2/1 15/3/1 16/4/1
f 17/1/1 18/2/1 19/3/1 20/4/1
f 21/1/1 22/2/1 23/3/1 24/4/1
f 25/1/1 26/2/1 27/3/1 28/4/1
f 29/1/1 30/2/1 31/3/1 32/4/1
f 33/1/1 34/2/1 35/3/1 36/4/1
f 37/1/1 38/2/1 39/3/1 40/4/1
f 41/1/1 42/2/1 43/3/1 44/4/1
f 45/1/1 46/2/1 47/3/1 48/4/1
f 49/1/1 50/2/1 51/3/1 52/4/1
f 53/1/1 54/2/1 55/3/1 56/4/1
f 57/1/1 58/2/1 59/3/1 60/4/1
f 61/1/1 62/2/1 63/3/1 64/4/1
f 65/1/1 66/2/1 67/3/1 68/4/1
f 69/1/1 70/2/1 71/3/1 72/4/1
f 73/1/1 74/2/1 75/3/1 76/4/1
f 77/1/1 78/2/1 79/3/1 80/4/1
f 81/1/1 82/2/1 83/3/1 84/4/1
f 85/1/1 86/2/1 87/3/1 88/4/1
f 89/2/1 90/3/1 91/4/1 92/1/1
f 93/2/1 94/3/1 95/4/1 96/1/1
f 97/2/1 98/3/1 99/4/1 100/1/1
f 101/2/1 102/3/1 103/4/1 104/1/1
f 105/2/1 106/3/1 107/4/1 108/1/1
f 109/2/1 110/3/1 111/4/1 112/1/1
f 113/2/1 114/3/1 115/4/1 116/1/1
f 117/2/1 118/3/1 119/4/1 120/1/1
f 121/2/1 122/3/1 123/4/1 124/1/1
f 125/2/1 126/3/1 127/4/1 128/1/1
f 129/2/1 130/3/1 131/4/1 132/1/1
f 133/2/1 134/3/1 135/4/1 136/1/1
f 137/2/1 138/3/1 139/4/1 140/1/1
f 141/2/1 142/3/1 143/4/1 144/1/1
f 145/1/1 146/2/1 147/3/1 148/4/1
f 149/1/1 150/2/1 151/3/1 152/4/1

