# Tiled2Unity generated file. Do not modify by hand.
# Wavefront file for 'dungeon-lvl-1_mesh_0010.obj'

# Vertices (Count = 28)
v -0.0009968848 -0.004984424 0
v -0.00199377 -0.004984424 0
v -0.00199377 -0.003987539 0
v -0.0009968848 -0.003987539 0
v -0.01196262 -0.008971963 0
v -0.0129595 -0.008971963 0
v -0.0129595 -0.007975078 0
v -0.01196262 -0.007975078 0
v -0.006978193 -0.01395639 0
v -0.007975078 -0.01395639 0
v -0.007975078 -0.0129595 0
v -0.006978193 -0.0129595 0
v -0.01096573 -0.01595016 0
v -0.01196262 -0.01595016 0
v -0.01196262 -0.01495327 0
v -0.01096573 -0.01495327 0
v -0.01196262 -0.01595016 0
v -0.0129595 -0.01595016 0
v -0.0129595 -0.01495327 0
v -0.01196262 -0.01495327 0
v -0.0129595 -0.01595016 0
v -0.01395639 -0.01595016 0
v -0.01395639 -0.01495327 0
v -0.0129595 -0.01495327 0
v -0.01395639 -0.01595016 0
v -0.01495327 -0.01595016 0
v -0.01495327 -0.01495327 0
v -0.01395639 -0.01495327 0

# Texture cooridinates (Count = 4)
vt 0 0
vt 1 0
vt 1 1
vt 0 1

# Normal
vn 0 0 -1

# Mesh description
g dungeon-lvl-1_mesh_0010

# Faces
f 1/1/1 2/2/1 3/3/1 4/4/1
f 5/1/1 6/2/1 7/3/1 8/4/1
f 9/1/1 10/2/1 11/3/1 12/4/1
f 13/1/1 14/2/1 15/3/1 16/4/1
f 17/1/1 18/2/1 19/3/1 20/4/1
f 21/1/1 22/2/1 23/3/1 24/4/1
f 25/1/1 26/2/1 27/3/1 28/4/1

